<?xml version="1.0" encoding="utf-8"?>
<!-- Generator: Adobe Illustrator 15.0.0, SVG Export Plug-In . SVG Version: 6.00 Build 0)  -->
<!DOCTYPE svg PUBLIC "-//W3C//DTD SVG 1.1//EN" "http://www.w3.org/Graphics/SVG/1.1/DTD/svg11.dtd">
<svg version="1.1" id="Layer_1" xmlns="http://www.w3.org/2000/svg" xmlns:xlink="http://www.w3.org/1999/xlink" x="0px" y="0px"
	 width="512px" height="512px" viewBox="-255.5 536.5 512 512" enable-background="new -255.5 536.5 512 512" xml:space="preserve">
<g>
	<g>
		<path fill="#FFCE00" d="M82.363,1003.588h-314.852V693.546h100.628c6.352,0,11.506-5.154,11.506-11.505V581.412H82.363V1003.588z"
			/>
		<rect x="175" y="681.758" fill="#FFCE00" width="58.49" height="259.987"/>
		<rect x="175" y="618.351" fill="#FFCE00" width="58.49" height="40.396"/>
		<polygon fill="#FFCE00" points="204.247,994.188 184.854,964.762 223.634,964.762 		"/>
		<polygon fill="#FFCE00" points="-143.366,597.682 -143.366,670.534 -216.22,670.534 		"/>
	</g>
	<g>
		<path d="M-243.995,1026.6H93.868c6.352,0,11.506-5.155,11.506-11.507V569.907c0-6.352-5.154-11.507-11.506-11.507h-225.729
			c-0.753,0-1.496,0.082-2.22,0.219c-0.012,0-0.023,0-0.035,0.006c-0.972,0.189-1.893,0.558-2.779,0.99
			c-0.23,0.115-0.448,0.23-0.667,0.362c-0.875,0.5-1.709,1.075-2.434,1.8l-112.134,112.128c-0.725,0.726-1.306,1.559-1.8,2.44
			c-0.121,0.219-0.241,0.431-0.356,0.655c-0.432,0.892-0.8,1.812-0.99,2.79c-0.005,0.006,0,0.017-0.005,0.027
			c-0.138,0.727-0.218,1.468-0.218,2.223V1015.1C-255.5,1021.45-250.346,1026.6-243.995,1026.6z M82.363,1003.588h-314.852V693.546
			h100.628c6.352,0,11.506-5.154,11.506-11.505V581.412H82.363V1003.588z M-143.366,597.682v72.853h-72.854L-143.366,597.682z"/>
		<path d="M-162.19,731.929c-6.351,0-11.505,5.154-11.505,11.506c0,6.351,5.154,11.506,11.505,11.506H12.069
			c6.35,0,11.505-5.155,11.505-11.506c0-6.352-5.155-11.506-11.505-11.506H-162.19z"/>
		<path d="M12.069,820.194H-162.19c-6.351,0-11.505,5.154-11.505,11.505c0,6.352,5.154,11.506,11.505,11.506H12.069
			c6.35,0,11.505-5.154,11.505-11.506C23.574,825.349,18.419,820.194,12.069,820.194z"/>
		<path d="M12.069,908.471H-162.19c-6.351,0-11.505,5.154-11.505,11.506c0,6.351,5.154,11.506,11.505,11.506H12.069
			c6.35,0,11.505-5.155,11.505-11.506C23.574,913.625,18.419,908.471,12.069,908.471z"/>
		<path d="M244.994,595.34h-81.499c-6.352,0-11.506,5.154-11.506,11.506v63.407v282.998c0,1.035,0.178,2.013,0.431,2.962
			c0.063,0.242,0.138,0.466,0.219,0.702c0.299,0.887,0.678,1.737,1.173,2.521c0.035,0.045,0.046,0.108,0.076,0.148l0.068,0.104l0,0
			l40.684,61.739c2.129,3.232,5.736,5.172,9.607,5.172c3.872,0,7.479-1.945,9.607-5.172l40.678-61.739l0,0l0.069-0.104
			c0.035-0.046,0.041-0.109,0.075-0.148c0.494-0.783,0.874-1.629,1.173-2.521c0.081-0.236,0.155-0.46,0.218-0.702
			c0.253-0.949,0.432-1.927,0.432-2.962V670.253v-63.407C256.5,600.488,251.346,595.34,244.994,595.34z M175,941.745V681.758h58.49
			v259.987H175z M175,618.351h58.49v40.396H175V618.351z M204.247,994.188l-19.393-29.426h38.779L204.247,994.188z"/>
	</g>
</g>
</svg>
