<?xml version="1.0" standalone="no"?>
<!DOCTYPE svg PUBLIC "-//W3C//DTD SVG 20010904//EN"
 "http://www.w3.org/TR/2001/REC-SVG-20010904/DTD/svg10.dtd">
<svg version="1.0" xmlns="http://www.w3.org/2000/svg"
 width="700.000000pt" height="700.000000pt" viewBox="0 0 700.000000 700.000000"
 preserveAspectRatio="xMidYMid meet">
<metadata>
Created by potrace 1.11, written by Peter Selinger 2001-2013
</metadata>
<g transform="translate(0.000000,700.000000) scale(0.100000,-0.100000)"
fill="#000000" stroke="none">
<path d="M635 6289 c-268 -26 -505 -215 -592 -473 l-28 -81 -3 -2213 c-3
-2473 -8 -2272 70 -2432 34 -69 59 -102 133 -175 73 -74 106 -99 175 -133 167
-82 -125 -75 3107 -72 2431 1 2892 4 2950 16 224 46 430 231 508 454 l30 85 3
1470 2 1470 -1047 1047 -1048 1048 -2090 -1 c-1150 -1 -2126 -5 -2170 -10z
m3327 -1561 l3 -983 22 -65 c66 -192 216 -337 413 -397 49 -15 157 -17 1033
-20 l977 -4 -2 -949 -3 -948 -24 -26 c-14 -14 -41 -30 -60 -36 -24 -6 -1013
-10 -2834 -10 -2528 0 -2802 2 -2832 16 -70 33 -65 -147 -65 2194 0 1899 2
2115 16 2145 33 69 -97 65 1716 65 l1637 0 3 -982z"/>
</g>
</svg>
